<?xml version="1.0" encoding="iso-8859-1"?>
<!-- Generator: Adobe Illustrator 19.0.0, SVG Export Plug-In . SVG Version: 6.00 Build 0)  -->
<svg version="1.1" id="Capa_1" xmlns="http://www.w3.org/2000/svg" xmlns:xlink="http://www.w3.org/1999/xlink" x="0px" y="0px"
	 viewBox="0 0 512.001 512.001" style="enable-background:new 0 0 512.001 512.001;" xml:space="preserve">
<path style="fill:#D4D4D4;" d="M448.579,392.51V206.739h20.457c12.483,0,22.638,10.159,22.638,22.649v140.486
	c0,12.483-10.154,22.638-22.638,22.638H448.579z"/>
<path style="fill:#FF4F4F;" d="M256.005,67.002c-16.272,0-29.51-13.233-29.51-29.5s13.237-29.5,29.51-29.5
	c16.266,0,29.5,13.233,29.5,29.5S272.272,67.002,256.005,67.002z"/>
<g>
	<path style="fill:#D4D4D4;" d="M162.114,158.753v-23.208c0-15.809,12.86-28.67,28.67-28.67h130.433
		c15.808,0,28.669,12.86,28.669,28.67v23.208H162.114z"/>
	<path style="fill:#D4D4D4;" d="M42.965,392.51c-12.483,0-22.638-10.154-22.638-22.638V229.387
		c0-12.488,10.154-22.649,22.638-22.649h20.467V392.51H42.965z"/>
</g>
<g>
	<path style="fill:#30C9B0;" d="M163.095,311.643c-24.728,0-44.845-20.113-44.845-44.835c0-24.728,20.117-44.845,44.845-44.845
		c24.722,0,44.835,20.117,44.835,44.845C207.93,291.531,187.817,311.643,163.095,311.643z"/>
	<path style="fill:#30C9B0;" d="M348.916,311.643c-24.728,0-44.845-20.113-44.845-44.835c0-24.728,20.117-44.845,44.845-44.845
		c24.722,0,44.835,20.117,44.835,44.845C393.751,291.531,373.639,311.643,348.916,311.643z"/>
</g>
<path style="fill:#EFEFEF;" d="M359.87,444.508v-56.129c0-18.626-15.154-33.781-33.782-33.781H185.912
	c-18.626,0-33.781,15.154-33.781,33.781v56.129H97.583c-21.037,0-38.153-17.115-38.153-38.154v-213.45
	c0-21.037,17.115-38.153,38.153-38.153h316.845c21.037,0,38.153,17.115,38.153,38.153v213.451c0,21.038-17.115,38.154-38.153,38.154
	H359.87V444.508z M348.916,225.965c-22.521,0-40.844,18.322-40.844,40.844c0,22.516,18.322,40.834,40.844,40.834
	c22.516,0,40.834-18.318,40.834-40.834C389.75,244.287,371.433,225.965,348.916,225.965z M163.095,225.965
	c-22.521,0-40.844,18.322-40.844,40.844c0,22.516,18.322,40.834,40.844,40.834c22.516,0,40.834-18.318,40.834-40.834
	C203.928,244.287,185.611,225.965,163.095,225.965z"/>
<g>
	<path style="fill:#D4D4D4;" d="M148.13,444.508v-56.129c0-20.833,16.949-37.783,37.783-37.783h140.177
		c20.834,0,37.784,16.949,37.784,37.783v56.129H148.13z"/>
	<rect x="203.938" y="440.506" style="fill:#D4D4D4;" width="104.135" height="63.491"/>
</g>
<path d="M190.784,98.873c-20.222,0-36.672,16.45-36.672,36.672v11.204H97.583c-25.449,0-46.155,20.705-46.155,46.155v5.832h-8.463
	c-16.896,0-30.64,13.75-30.64,30.651v140.486c0,16.896,13.745,30.64,30.64,30.64h8.463v5.842c0,25.45,20.705,46.156,46.155,46.156
	h52.547h45.805v49.486c0,5.524,4.479,10.003,10.003,10.003h100.133c5.524,0,10.003-4.479,10.003-10.003v-49.486h45.795h52.557
	c25.449,0,46.155-20.705,46.155-46.156v-5.842h8.453c16.896,0,30.64-13.745,30.64-30.64V229.387
	c0-16.902-13.745-30.651-30.64-30.651h-8.453v-5.832c0-25.449-20.705-46.155-46.155-46.155h-56.539v-11.204
	c0-20.222-16.45-36.672-36.671-36.672H266.01V73.639c15.836-4.389,27.499-18.923,27.499-36.137C293.508,16.824,276.684,0,256.005,0
	c-20.685,0-37.512,16.824-37.512,37.502c0,17.216,11.667,31.75,27.509,36.138v25.232H190.784z M238.5,37.502
	c0-9.648,7.854-17.496,17.506-17.496c9.648,0,17.496,7.849,17.496,17.496s-7.849,17.496-17.496,17.496
	C246.353,54.998,238.5,47.151,238.5,37.502z M32.331,369.873V229.387c0-5.869,4.771-10.645,10.634-10.645h8.463v161.764h-8.463
	C37.102,380.506,32.331,375.736,32.331,369.873z M351.867,432.504h-45.795H205.939h-45.805v-44.125
	c0-14.214,11.565-25.779,25.779-25.779h140.177c14.215,0,25.78,11.565,25.78,25.779L351.867,432.504L351.867,432.504z
	 M296.069,491.993h-80.127V452.51h80.127V491.993z M479.67,229.387v140.486c0,5.863-4.771,10.634-10.634,10.634h-8.453V218.743
	h8.453C474.899,218.743,479.67,223.517,479.67,229.387z M440.577,192.904v15.835v48.066h-39.784
	c-4.69-24.372-26.162-42.844-51.876-42.844c-29.141,0-52.848,23.707-52.848,52.848c0,29.135,23.707,52.838,52.848,52.838
	c25.715,0,47.186-18.468,51.875-42.834h39.784V390.51v15.845c0,14.419-11.731,26.15-26.149,26.15h-42.554V388.38
	c0-25.245-20.539-45.785-45.786-45.785H185.912c-25.245,0-45.785,20.539-45.785,45.785v44.125H97.583
	c-14.418,0-26.149-11.731-26.149-26.15V390.51V276.812h39.775c4.691,24.366,26.166,42.834,51.885,42.834
	c29.135,0,52.838-23.703,52.838-52.838c0-29.141-23.703-52.848-52.838-52.848c-25.72,0-47.196,18.472-51.885,42.844H71.434v-48.066
	v-15.835c0-14.418,11.731-26.149,26.149-26.149h66.532h183.771h66.543C428.846,166.755,440.577,178.486,440.577,192.904z
	 M381.747,266.809c0,18.104-14.728,32.831-32.831,32.831c-18.109,0-32.841-14.728-32.841-32.831
	c0-18.109,14.733-32.841,32.841-32.841C367.019,233.968,381.747,248.7,381.747,266.809z M130.254,266.809
	c0-18.109,14.733-32.841,32.841-32.841c18.104,0,32.831,14.733,32.831,32.841c0,18.104-14.728,32.831-32.831,32.831
	C144.987,299.639,130.254,284.912,130.254,266.809z M337.883,135.545v11.204H174.118v-11.204c0-9.19,7.476-16.666,16.666-16.666
	h130.433C330.406,118.879,337.883,126.355,337.883,135.545z"/>
<path d="M316.043,185.892H226.02c-5.524,0-10.003,4.479-10.003,10.003c0,5.524,4.479,10.003,10.003,10.003h90.024
	c5.524,0,10.003-4.479,10.003-10.003C326.047,190.371,321.567,185.892,316.043,185.892z"/>
<path d="M347.886,205.898c12.873,0,12.894-20.007,0-20.007C335.013,185.892,334.992,205.898,347.886,205.898z"/>
<g>
</g>
<g>
</g>
<g>
</g>
<g>
</g>
<g>
</g>
<g>
</g>
<g>
</g>
<g>
</g>
<g>
</g>
<g>
</g>
<g>
</g>
<g>
</g>
<g>
</g>
<g>
</g>
<g>
</g>
</svg>
